<svg width="24" height="24" viewBox="0 0 24 24" fill="none" xmlns="http://www.w3.org/2000/svg">
<g clip-path="url(#clip0_30_20740)">
<rect opacity="0.6" x="3" y="3" width="18" height="18" rx="2" stroke="#74DCFF" stroke-width="0.04"/>
<rect opacity="0.6" x="2" y="2" width="20" height="20" rx="10" stroke="#A5A5A5" stroke-width="0.04"/>
<rect opacity="0.6" x="7" y="7" width="10" height="10" rx="5" stroke="#A5A5A5" stroke-width="0.04"/>
<rect opacity="0.6" x="2" y="4" width="20" height="16" rx="2" stroke="#FFA800" stroke-width="0.04"/>
<rect opacity="0.6" x="4" y="22" width="20" height="16" rx="2" transform="rotate(-90 4 22)" stroke="#F79DFF" stroke-width="0.04"/>
<path opacity="0.6" d="M24 0L0 24" stroke="#A5A5A5" stroke-width="0.04"/>
<path opacity="0.6" d="M0 0L24 24" stroke="#A5A5A5" stroke-width="0.04"/>
<path fill-rule="evenodd" clip-rule="evenodd" d="M9.75 8.5C9.75 7.25736 10.7574 6.25 12 6.25C13.2426 6.25 14.25 7.25736 14.25 8.5C14.25 9.74264 13.2426 10.75 12 10.75C10.7574 10.75 9.75 9.74264 9.75 8.5ZM12 4.75C9.92893 4.75 8.25 6.42893 8.25 8.5C8.25 10.5711 9.92893 12.25 12 12.25C14.0711 12.25 15.75 10.5711 15.75 8.5C15.75 6.42893 14.0711 4.75 12 4.75ZM5.75 18.5C5.75 17.7889 5.90972 17.2735 6.16054 16.8866C6.41216 16.4986 6.79104 16.1851 7.31846 15.9378C8.40671 15.4274 10.0105 15.25 12 15.25C13.9895 15.25 15.5933 15.4274 16.6815 15.9378C17.209 16.1851 17.5878 16.4986 17.8395 16.8866C18.0903 17.2735 18.25 17.7889 18.25 18.5C18.25 18.9142 18.5858 19.25 19 19.25C19.4142 19.25 19.75 18.9142 19.75 18.5C19.75 17.5561 19.5347 16.744 19.098 16.0706C18.6622 15.3983 18.041 14.9186 17.3185 14.5797C15.9067 13.9176 14.0105 13.75 12 13.75C9.98953 13.75 8.09329 13.9176 6.68154 14.5797C5.95896 14.9186 5.33784 15.3983 4.90196 16.0706C4.46528 16.744 4.25 17.5561 4.25 18.5C4.25 18.9142 4.58579 19.25 5 19.25C5.41421 19.25 5.75 18.9142 5.75 18.5Z" fill="black"/>
</g>
<defs>
<clipPath id="clip0_30_20740">
<rect width="24" height="24" fill="white"/>
</clipPath>
</defs>
</svg>
